<svg width="180" height="97" viewBox="0 0 180 97" fill="none" xmlns="http://www.w3.org/2000/svg">
<g clip-path="url(#clip0_1_3457)">
<mask id="mask0_1_3457" style="mask-type:luminance" maskUnits="userSpaceOnUse" x="0" y="0" width="180" height="97">
<path d="M180 0H0V97H180V0Z" fill="white"/>
</mask>
<g mask="url(#mask0_1_3457)">
<path d="M89.953 52.9902V62.0167C89.953 62.7183 89.3914 63.2795 88.6894 63.2795H60.0934C59.3914 63.2795 58.8298 63.8407 58.8298 64.5891L58.9702 70.1079C58.9702 70.8094 59.5318 71.3239 60.2338 71.3239H80.1246C80.8267 71.3239 81.3883 71.8851 81.3883 72.5866V81.6132C81.3883 82.3147 80.8267 82.8759 80.1246 82.8759H60.2338C59.5318 82.8759 58.9702 83.4372 58.9702 84.0919L58.783 95.6908C58.783 96.3923 58.2214 96.9068 57.5193 96.9068H48.3462C47.6441 96.9068 47.0825 96.3456 47.0825 95.644V52.9434C47.0825 52.2419 47.6441 51.6807 48.3462 51.6807H88.6426C89.3914 51.7274 89.953 52.2887 89.953 52.9902Z" fill="black"/>
<path d="M106.755 85.1201L110.312 85.1669C111.014 85.1669 111.529 85.7281 111.529 86.4297V95.5029C111.529 96.2045 110.967 96.7657 110.265 96.7657L95.1484 96.6722C94.4464 96.6722 93.8848 96.111 93.8848 95.4094V53.0362C93.8848 52.3347 94.4464 51.7734 95.1484 51.7734H104.181C104.883 51.7734 105.445 52.3347 105.445 53.0362V83.8573C105.538 84.5589 106.053 85.1201 106.755 85.1201Z" fill="black"/>
<path d="M126.739 96.8596H117.707C117.004 96.8596 116.443 96.2983 116.443 95.5968V74.8311C116.443 74.1296 117.004 73.5684 117.707 73.5684H126.739C127.441 73.5684 128.003 74.1296 128.003 74.8311V95.5968C128.003 96.2516 127.441 96.8596 126.739 96.8596Z" fill="black"/>
<path d="M149.251 96.9998H140.218C139.516 96.9998 138.955 96.4385 138.955 95.737V53.13C138.955 52.4284 139.516 51.8672 140.218 51.8672H162.122C164.93 51.8672 167.597 52.4752 170.125 53.738C172.652 55.0007 174.805 56.6377 176.724 58.7423C178.596 60.8002 180.047 63.9805 180.047 66.5996C180.093 73.7553 178.596 76.468 176.771 78.5258C174.898 80.5837 172.746 82.1738 170.218 83.4366C167.691 84.6526 165.023 85.3074 162.122 85.3542C160.156 85.4009 158.237 85.4477 156.318 85.4009C154.82 85.3542 153.323 85.3542 151.778 85.3542C151.076 85.3542 150.515 85.9154 150.515 86.6169V95.7838C150.515 96.4385 149.953 96.9998 149.251 96.9998ZM150.515 72.4458C150.515 73.1473 151.076 73.7086 151.778 73.7086H161.7C163.011 73.7086 166.615 73.3344 167.597 72.4925C170.873 69.7799 169.282 66.2254 167.597 64.8691C165.678 63.3725 162.73 63.3725 161.419 63.3725H151.778C151.076 63.3725 150.515 63.9337 150.515 64.6353V72.4458Z" fill="black"/>
<path d="M38.1435 28.7628C35.4758 30.7271 32.7613 32.6915 30 34.6558C29.5788 34.9832 28.9704 34.9832 28.5491 34.6558C25.7878 32.6915 23.0733 30.7271 20.4056 28.7628C18.1123 27.1259 15.8658 25.4422 13.5725 23.7585C12.7301 23.1505 11.5601 23.7117 11.5601 24.7874V43.9629C11.5601 44.6645 10.9984 45.2257 10.2964 45.2257H1.26365C0.561622 45.2257 0 44.6645 0 43.9629V2.10419C0 1.07526 1.17005 0.467264 2.01248 1.07526C6.22465 4.16205 10.4368 7.20207 14.649 10.2421C19.2356 13.5627 23.869 16.9301 28.5023 20.3443C28.9236 20.6717 29.532 20.6717 30 20.3443C34.6334 16.9301 39.2668 13.5627 43.9002 10.2421C48.1123 7.20207 52.3245 4.16205 56.5367 1.07526C57.3791 0.467264 58.5491 1.07526 58.5491 2.10419V43.9629C58.5491 44.6645 57.9875 45.2257 57.2855 45.2257H48.2059C47.5039 45.2257 46.9423 44.6645 46.9423 43.9629V24.7874C46.9423 23.7585 45.7722 23.1505 44.9298 23.7585C42.6833 25.4422 40.39 27.1259 38.1435 28.7628Z" fill="black"/>
<path d="M107.363 25.162C106.006 26.9392 104.415 28.5294 102.496 29.8857C101.232 30.8211 99.8282 31.5694 98.3774 32.1307C97.4881 32.5048 97.3009 33.6741 98.0497 34.2821L108.767 42.9812C109.703 43.7295 109.142 45.2261 107.972 45.2261H98.0497C97.7689 45.2261 97.4881 45.1326 97.2541 44.9455L83.0731 33.7676C82.8391 33.5805 82.5583 33.487 82.2775 33.487H76.0529C75.3508 33.487 74.7892 34.0482 74.7892 34.7498V43.9634C74.7892 44.6649 74.2276 45.2261 73.5256 45.2261H64.5864C63.8844 45.2261 63.3228 44.6649 63.3228 43.9634V1.26278C63.3228 0.561234 63.8844 0 64.5864 0H91.5911C91.6379 0 91.6379 0 91.6847 0C94.446 0.187078 99.2666 0.888621 101.7 2.05786C108.019 5.09788 109.329 7.90405 109.937 13.3293C110.686 19.269 108.721 23.3848 107.363 25.162ZM92.0123 21.9349C93.1355 21.9349 95.5692 21.9349 96.8797 19.69C97.9093 17.866 97.3477 14.7792 96.7393 13.7502C95.4756 11.5521 92.3867 11.5988 91.0763 11.5521H76.1465C75.4444 11.5521 74.8828 12.1133 74.8828 12.8149V20.6721C74.8828 21.3737 75.4444 21.9349 76.1465 21.9349H92.0123Z" fill="black"/>
<path d="M113.167 67.2076H131.279C132.309 67.2076 132.917 66.0383 132.262 65.1965L123.182 53.2235C122.668 52.5687 121.685 52.5687 121.17 53.2235L112.09 65.1965C111.529 66.0383 112.137 67.2076 113.167 67.2076Z" fill="url(#paint0_linear_1_3457)"/>
<path d="M131.279 30.9609H113.167C112.137 30.9609 111.529 32.1302 112.184 32.972L121.217 44.945C121.732 45.5998 122.714 45.5998 123.229 44.945L132.309 32.972C132.917 32.1302 132.309 30.9609 131.279 30.9609Z" fill="url(#paint1_linear_1_3457)"/>
</g>
</g>
<defs>
<linearGradient id="paint0_linear_1_3457" x1="121.988" y1="36.8072" x2="122.216" y2="64.2729" gradientUnits="userSpaceOnUse">
<stop stop-color="#7B51F7"/>
<stop offset="0.1747" stop-color="#7A55F6"/>
<stop offset="0.3541" stop-color="#7761F3"/>
<stop offset="0.5356" stop-color="#7276EF"/>
<stop offset="0.7187" stop-color="#6B93E8"/>
<stop offset="0.9013" stop-color="#62B8E0"/>
<stop offset="0.9973" stop-color="#5DCEDB"/>
</linearGradient>
<linearGradient id="paint1_linear_1_3457" x1="122.448" y1="17.3624" x2="121.87" y2="56.9135" gradientUnits="userSpaceOnUse">
<stop stop-color="#7B51F7"/>
<stop offset="0.1747" stop-color="#7A55F6"/>
<stop offset="0.3541" stop-color="#7761F3"/>
<stop offset="0.5356" stop-color="#7276EF"/>
<stop offset="0.7187" stop-color="#6B93E8"/>
<stop offset="0.9013" stop-color="#62B8E0"/>
<stop offset="0.9973" stop-color="#5DCEDB"/>
</linearGradient>
<clipPath id="clip0_1_3457">
<rect width="180" height="97" fill="white"/>
</clipPath>
</defs>
</svg>
