<svg width="129" height="60" viewBox="0 0 129 60" fill="none" xmlns="http://www.w3.org/2000/svg">
<rect x="29" width="2" height="14" fill="#BAB0FF"/>
<rect x="37" y="6" width="2" height="14" transform="rotate(90 37 6)" fill="#BAB0FF"/>
<rect x="29" y="23" width="2" height="14" fill="#BAB0FF"/>
<rect x="37" y="29" width="2" height="14" transform="rotate(90 37 29)" fill="#BAB0FF"/>
<rect x="6" width="2" height="14" fill="#BAB0FF"/>
<rect x="14" y="6" width="2" height="14" transform="rotate(90 14 6)" fill="#BAB0FF"/>
<rect x="121" y="46" width="2" height="14" fill="#BAB0FF"/>
<rect x="129" y="52" width="2" height="14" transform="rotate(90 129 52)" fill="#BAB0FF"/>
<rect x="121" width="2" height="14" fill="#BAB0FF"/>
<rect x="129" y="6" width="2" height="14" transform="rotate(90 129 6)" fill="#BAB0FF"/>
<rect x="121" y="23" width="2" height="14" fill="#BAB0FF"/>
<rect x="129" y="29" width="2" height="14" transform="rotate(90 129 29)" fill="#BAB0FF"/>
<rect x="98" y="46" width="2" height="14" fill="#BAB0FF"/>
<rect x="106" y="52" width="2" height="14" transform="rotate(90 106 52)" fill="#BAB0FF"/>
<rect x="98" width="2" height="14" fill="#BAB0FF"/>
<rect x="106" y="6" width="2" height="14" transform="rotate(90 106 6)" fill="#BAB0FF"/>
<rect x="98" y="23" width="2" height="14" fill="#BAB0FF"/>
<rect x="106" y="29" width="2" height="14" transform="rotate(90 106 29)" fill="#BAB0FF"/>
<rect x="75" y="46" width="2" height="14" fill="#BAB0FF"/>
<rect x="83" y="52" width="2" height="14" transform="rotate(90 83 52)" fill="#BAB0FF"/>
<rect x="75" width="2" height="14" fill="#BAB0FF"/>
<rect x="83" y="6" width="2" height="14" transform="rotate(90 83 6)" fill="#BAB0FF"/>
<rect x="75" y="23" width="2" height="14" fill="#BAB0FF"/>
<rect x="83" y="29" width="2" height="14" transform="rotate(90 83 29)" fill="#BAB0FF"/>
<rect x="52" width="2" height="14" fill="#BAB0FF"/>
<rect x="60" y="6" width="2" height="14" transform="rotate(90 60 6)" fill="#BAB0FF"/>
<rect x="52" y="23" width="2" height="14" fill="#BAB0FF"/>
<rect x="60" y="29" width="2" height="14" transform="rotate(90 60 29)" fill="#BAB0FF"/>
</svg>
